<svg xmlns="http://www.w3.org/2000/svg" width="18" height="18" viewBox="0 0 18 18">
  <metadata><?xpacket begin="﻿" id="W5M0MpCehiHzreSzNTczkc9d"?>
<x:xmpmeta xmlns:x="adobe:ns:meta/" x:xmptk="Adobe XMP Core 5.6-c140 79.160451, 2017/05/06-01:08:21        ">
   <rdf:RDF xmlns:rdf="http://www.w3.org/1999/02/22-rdf-syntax-ns#">
      <rdf:Description rdf:about=""/>
   </rdf:RDF>
</x:xmpmeta>
                                                                                                    
                                                                                                    
                                                                                                    
                                                                                                    
                                                                                                    
                                                                                                    
                                                                                                    
                                                                                                    
                                                                                                    
                                                                                                    
                                                                                                    
                                                                                                    
                                                                                                    
                                                                                                    
                                                                                                    
                                                                                                    
                                                                                                    
                                                                                                    
                                                                                                    
                                                                                                    
                           
<?xpacket end="w"?></metadata>
<defs>
    <style>
      .cls-1 {
        fill: #2774e6;
        fill-rule: evenodd;
      }
    </style>
  </defs>
  <path id="grid_icon_filp_right" class="cls-1" d="M1900.2,831a0.969,0.969,0,0,1-.93,1h-9.34a1,1,0,0,1,0-2h9.34a0.969,0.969,0,0,1,.93,1h0Zm-2.8,5a0.969,0.969,0,0,1-.93,1h-6.54a1,1,0,0,1,0-2h6.54a0.969,0.969,0,0,1,.93,1h0Zm2.8,5a0.969,0.969,0,0,1-.93,1h-9.34a1,1,0,0,1,0-2h9.34a0.969,0.969,0,0,1,.93,1h0Zm-0.93-2,3.73-3-3.73-3v6Zm0,0" transform="translate(-1887 -827)"/>
</svg>
