<svg id="摄像头" xmlns="http://www.w3.org/2000/svg" width="26" height="32" viewBox="0 0 26 32">
  <metadata><?xpacket begin="﻿" id="W5M0MpCehiHzreSzNTczkc9d"?>
<x:xmpmeta xmlns:x="adobe:ns:meta/" x:xmptk="Adobe XMP Core 5.6-c140 79.160451, 2017/05/06-01:08:21        ">
   <rdf:RDF xmlns:rdf="http://www.w3.org/1999/02/22-rdf-syntax-ns#">
      <rdf:Description rdf:about=""/>
   </rdf:RDF>
</x:xmpmeta>
                                                                                                    
                                                                                                    
                                                                                                    
                                                                                                    
                                                                                                    
                                                                                                    
                                                                                                    
                                                                                                    
                                                                                                    
                                                                                                    
                                                                                                    
                                                                                                    
                                                                                                    
                                                                                                    
                                                                                                    
                                                                                                    
                                                                                                    
                                                                                                    
                                                                                                    
                                                                                                    
                           
<?xpacket end="w"?></metadata>
<defs>
    <style>
      .cls-1 {
        fill: #0874ea;
      }

      .cls-1, .cls-2 {
        fill-rule: evenodd;
      }

      .cls-2 {
        fill: #fff;
      }

      .cls-3 {
        fill: #7d7d7d;
        opacity: 0.5;
      }
    </style>
  </defs>
  <path id="形状_644" data-name="形状 644" class="cls-1" d="M722,612h20a3,3,0,0,1,3,3v20a3,3,0,0,1-3,3H722a3,3,0,0,1-3-3V615A3,3,0,0,1,722,612Zm7,26,3,4,3-4h-6Z" transform="translate(-719 -612)"/>
  <path id="形状_643" data-name="形状 643" class="cls-2" d="M737.871,628.457a1.839,1.839,0,0,1-.322.3v0h0v-0.008h0v-0.008h0v-0.008h0v-0.008h0v-0.008h0V628.7h0v-0.008h0v-0.008h0v-0.008h0v-0.008h0v-0.018h0v-0.008h0v-0.008c-0.423-.616-2.01-0.419-2.166.242v0.037l-2.115-1.374,2.182-.872,1.917,1.616h0a0.716,0.716,0,0,0,.539.109,0.5,0.5,0,0,1-.038.069m-10.292-5.69a3.679,3.679,0,0,0-1.4-.21c3.927-1.459,7.878-2.857,11.805-4.32a2.494,2.494,0,0,1,1.82-.113,1.806,1.806,0,0,1,.237.107c-3.724,1.382-8.812,3.187-12.462,4.536M742,621.325l-10.809,4.381a10.189,10.189,0,0,0-2.534-2.417c4.054-1.482,8.048-2.912,12.141-4.428A7.22,7.22,0,0,1,742,621.325Zm-11.141,4.116q0.141,0.173.278,0.349l0.022,0.029,8.8-3.567c0.023,0.4.08,0.788,0.1,1.184a4.04,4.04,0,0,1-.122,1.332l-9.328,3.728a5.643,5.643,0,0,0,.085-0.605,6.492,6.492,0,0,0,.033-0.7,11.872,11.872,0,0,0-.061-1.28l-0.008-.149a0.468,0.468,0,0,0,.2-0.324m-5.041-2.75a3.545,3.545,0,0,1,1.583.1l-2.492,1h0a0.968,0.968,0,0,0-.539,1.107l0.166,1.9a0.424,0.424,0,0,0-.184.21,0.59,0.59,0,0,0,.095.547,0.57,0.57,0,0,0,.552.244l0.034,0.054-0.325.171c-0.727-.864-2.123-2.735-1.582-3.9a1.318,1.318,0,0,1,.564-0.583c0.711-.281,1.413-0.589,2.131-0.855m12.424,2.855-0.016,2.226a0.536,0.536,0,0,1-.313.519,0.6,0.6,0,0,1-.489-0.088l-1.875-1.581Zm-13.517,1.437a0.266,0.266,0,0,0-.153.346,0.278,0.278,0,0,0,.32.214,0.268,0.268,0,0,0,.154-0.347,0.277,0.277,0,0,0-.321-0.213m5.284-1.9a0.267,0.267,0,0,0-.172.338,0.276,0.276,0,0,0,.308.229,0.267,0.267,0,0,0,.172-0.338A0.275,0.275,0,0,0,730.009,625.084Zm-1.52-1.23-3.39,1.194,1.356,3.656,3.294-1.172Zm2.017,4.682-3.2,1.125a1.417,1.417,0,0,1-.915-0.036,1.286,1.286,0,0,1-.281-0.26l-0.73-1.131-0.336-.538-0.033.007c-0.487.108-.831-0.62-0.4-0.837l0.028-.015-0.171-1.966v0a0.876,0.876,0,0,1,.487-1.012l2.57-1.027a7.81,7.81,0,0,1,3.241,2.477,0.368,0.368,0,0,1-.185.389l-0.023.016,0,0.027A9.239,9.239,0,0,1,730.506,628.536Zm4.873,1.1a0.692,0.692,0,0,0,.378.284,1.689,1.689,0,0,0,.751.071,1.822,1.822,0,0,0,.661-0.2l-1.8,3.214h-3.008Zm1.867-1.2a0.685,0.685,0,0,1,.255.208c0,0.125,0,.252-0.006.377a0.67,0.67,0,0,0-.249-0.193v-0.392Zm-1.815.441a1.133,1.133,0,0,1,1.029-.567,1.878,1.878,0,0,1,.438.019v0.395a1.856,1.856,0,0,0-.5-0.007,1.715,1.715,0,0,0-.768.267,0.871,0.871,0,0,0-.2.191C735.432,629.075,735.435,628.975,735.431,628.876Zm-0.1.491,0,0.147h0v0.031l-3,3.357v-0.973Zm1.113-.151a0.227,0.227,0,0,0-.236.164,0.212,0.212,0,0,0,.259.107,0.228,0.228,0,0,0,.236-0.164,0.212,0.212,0,0,0-.259-0.107m-0.032-.409a1.6,1.6,0,0,1,.707.067,0.537,0.537,0,0,1,.352.3,0.245,0.245,0,0,1,.011.059,0.5,0.5,0,0,1-.26.412,1.609,1.609,0,0,1-.723.251,1.581,1.581,0,0,1-.707-0.066,0.539,0.539,0,0,1-.352-0.3,0.236,0.236,0,0,1-.011-0.059,0.5,0.5,0,0,1,.26-0.411A1.623,1.623,0,0,1,736.41,628.807Zm-9.524-4.09a1.487,1.487,0,0,0-.887,2.012,1.761,1.761,0,0,0,2.03,1.2,1.487,1.487,0,0,0,.887-2.012,1.761,1.761,0,0,0-2.03-1.2m-0.065-.183a1.656,1.656,0,0,0-.988,2.241,1.961,1.961,0,0,0,2.261,1.337,1.656,1.656,0,0,0,.988-2.241A1.961,1.961,0,0,0,726.821,624.534Zm0.415,1.008a0.63,0.63,0,0,0-.25.86,0.663,0.663,0,0,0,.82.4,0.629,0.629,0,0,0,.251-0.86,0.664,0.664,0,0,0-.821-0.4m-0.216-.508a1.18,1.18,0,0,0-.7,1.6,1.4,1.4,0,0,0,1.61.951,1.179,1.179,0,0,0,.7-1.6,1.4,1.4,0,0,0-1.61-.952m-0.051-.145a1.313,1.313,0,0,0-.784,1.777,1.554,1.554,0,0,0,1.793,1.06,1.313,1.313,0,0,0,.783-1.777A1.555,1.555,0,0,0,726.969,624.889Zm0.153,0.408a0.9,0.9,0,0,0-.536,1.216,1.064,1.064,0,0,0,1.226.725,0.9,0.9,0,0,0,.536-1.216,1.064,1.064,0,0,0-1.226-.725m-0.039-.11a1,1,0,0,0-.6,1.354,1.184,1.184,0,0,0,1.366.807,1,1,0,0,0,.6-1.354A1.186,1.186,0,0,0,727.083,625.187Z" transform="translate(-719 -612)"/>
  <ellipse id="椭圆_646" data-name="椭圆 646" class="cls-3" cx="13" cy="31.5" rx="2" ry="0.5"/>
</svg>
